<?xml version="1.0" encoding="UTF-8"?>
<svg version="1.1" xmlns="http://www.w3.org/2000/svg" width="431" height="142">
<path d="M0 0 C142.23 0 284.46 0 431 0 C431 46.86 431 93.72 431 142 C288.77 142 146.54 142 0 142 C0 95.14 0 48.28 0 0 Z " fill="#FEFEFE" transform="translate(0,0)"/>
<path d="M0 0 C5.84713732 0.61151025 8.13823525 1.47621843 12 6 C12.66 6.66 13.32 7.32 14 8 C14.28710938 10.51855469 14.28710938 10.51855469 14.34375 13.671875 C14.37339844 14.81140625 14.40304688 15.9509375 14.43359375 17.125 C14.45550781 18.32125 14.47742187 19.5175 14.5 20.75 C14.54359741 23.09913116 14.59541531 25.44812702 14.65625 27.796875 C14.67494141 28.84198242 14.69363281 29.88708984 14.71289062 30.96386719 C15.0211205 34.22334568 15.85470373 36.94244759 17 40 C23.09741064 41.20020761 23.09741064 41.20020761 29 40 C29.9300889 37.2097333 30.18698769 35.23470458 30.31640625 32.33203125 C30.35830078 31.43935547 30.40019531 30.54667969 30.44335938 29.62695312 C30.48267578 28.69818359 30.52199219 27.76941406 30.5625 26.8125 C30.60568359 25.87212891 30.64886719 24.93175781 30.69335938 23.96289062 C30.79938543 21.64209812 30.90019194 19.32106823 31 17 C35.95 17 40.9 17 46 17 C46.08184423 19.97973615 46.14089764 22.95716832 46.1875 25.9375 C46.21263672 26.76830078 46.23777344 27.59910156 46.26367188 28.45507812 C46.34710601 35.60260244 45.09379657 41.75100532 41.1875 47.8125 C35.96936788 53.03063212 30.54258134 56.03812605 23.1875 56.375 C15.9939889 56.22513519 10.12136993 52.97910965 5 48 C0.33728125 41.41548501 -0.15094647 35.50074418 -0.09765625 27.63671875 C-0.0962413 26.84473587 -0.09482635 26.05275299 -0.09336853 25.23677063 C-0.08779457 22.72030781 -0.07524693 20.20393569 -0.0625 17.6875 C-0.05748163 15.97591275 -0.05291931 14.26432409 -0.04882812 12.55273438 C-0.03783368 8.36845492 -0.02058707 4.18424281 0 0 Z " fill="#448DF4" transform="translate(46,80)"/>
<path d="M0 0 C6.47183152 3.58189418 10.49723695 8.99888053 12.75 16 C13.01733014 18.93627745 12.98307463 21.85446915 12.9453125 24.80078125 C12.9424826 25.63715622 12.93965271 26.47353119 12.93673706 27.33525085 C12.9255832 29.99448226 12.90048763 32.65337118 12.875 35.3125 C12.86496399 37.12043783 12.85583923 38.92838096 12.84765625 40.73632812 C12.82565959 45.15768312 12.79116294 49.57878358 12.75 54 C6.9685343 53.41669644 4.01059316 52.60851607 0.11572266 48.34472656 C-2.65774342 43.58313054 -2.15499055 38.23945171 -2.0625 32.875 C-2.06122093 30.55988703 -2.06744606 28.24475488 -2.08203125 25.9296875 C-2.06889893 24.91116699 -2.0557666 23.89264648 -2.04223633 22.84326172 C-2.26321748 19.8191178 -2.87903531 17.69628062 -4.25 15 C-7.36549872 13.44225064 -10.8544388 13.43519378 -14.25 14 C-16.29576759 15.59725548 -17.14973903 16.51658473 -17.68237305 19.0847168 C-17.70855713 19.86500244 -17.73474121 20.64528809 -17.76171875 21.44921875 C-17.79716797 22.29677734 -17.83261719 23.14433594 -17.86914062 24.01757812 C-17.90297852 25.33918945 -17.90297852 25.33918945 -17.9375 26.6875 C-17.98874023 28.02651367 -17.98874023 28.02651367 -18.04101562 29.39257812 C-18.12344467 31.59461121 -18.18840047 33.79728582 -18.25 36 C-23.2 36 -28.15 36 -33.25 36 C-34.26606998 12.74328723 -34.26606998 12.74328723 -26.828125 4.40625 C-19.10638109 -2.73428738 -9.43912193 -4.20147382 0 0 Z " fill="#438DF4" transform="translate(79.25,9)"/>
<path d="M0 0 C0.85574112 0.00424484 1.71148224 0.00848969 2.59315491 0.01286316 C5.30332045 0.02954086 8.01271873 0.0671717 10.72265625 0.10546875 C12.56965065 0.12052973 14.41665681 0.13421565 16.26367188 0.14648438 C20.77112509 0.17940849 25.27801097 0.23111406 29.78515625 0.29296875 C29.98828125 5.95703125 29.98828125 5.95703125 28.16015625 8.98046875 C22.069802 14.91055052 15.78602576 14.78220546 7.72265625 14.91796875 C5.58585137 14.96918037 3.44912368 15.02374765 1.3125 15.08203125 C0.37140381 15.09959473 -0.56969238 15.1171582 -1.53930664 15.13525391 C-4.18279194 15.29107939 -6.63492034 15.71003761 -9.21484375 16.29296875 C-10.70569207 20.76551372 -10.70569207 24.82042378 -9.21484375 29.29296875 C-4.63095235 30.38612121 -0.08973368 30.615795 4.59765625 30.85546875 C5.38591797 30.89865234 6.17417969 30.94183594 6.98632812 30.98632812 C8.9190984 31.09175196 10.85210651 31.19279969 12.78515625 31.29296875 C12.78515625 35.91296875 12.78515625 40.53296875 12.78515625 45.29296875 C9.26348752 45.40142048 5.74519392 45.4805045 2.22265625 45.54296875 C1.23201172 45.57648438 0.24136719 45.61 -0.77929688 45.64453125 C-7.2375851 45.73035568 -10.93068392 45.05059352 -16.21484375 41.29296875 C-17.28734375 40.55046875 -18.35984375 39.80796875 -19.46484375 39.04296875 C-24.27026836 34.23754414 -25.36705929 29.49506782 -25.58984375 22.79296875 C-25.40023161 16.57886192 -24.19495711 11.69310616 -20.15234375 6.79296875 C-18.21484375 5.29296875 -18.21484375 5.29296875 -16.21484375 5.29296875 C-16.21484375 4.63296875 -16.21484375 3.97296875 -16.21484375 3.29296875 C-10.59858158 0.44708956 -6.24671704 -0.11839581 0 0 Z " fill="#0D52B3" transform="translate(30.21484375,48.70703125)"/>
<path d="M0 0 C24.06788297 -0.99728797 24.06788297 -0.99728797 31 5 C37.08554945 11.37593874 38.2808321 16.50752118 38.234375 25.16015625 C37.89935279 29.21950866 36.67396811 32.30332042 35 36 C34.34 36 33.68 36 33 36 C32.75040527 36.60368408 32.50081055 37.20736816 32.24365234 37.8293457 C29.75029073 42.18122598 25.66759303 43.62959253 21 45 C14.49660724 45.79146529 7.90873322 45.47290757 1.375 45.3125 C-0.41012491 45.28737794 -2.19528399 45.26457169 -3.98046875 45.24414062 C-8.32116718 45.1894722 -12.66020061 45.10341948 -17 45 C-17.2109375 39.3359375 -17.2109375 39.3359375 -15.3125 36.3125 C-11.23775881 32.23775881 -7.98818913 30.63901421 -2.21875 30.5234375 C-1.12949219 30.4925 -0.04023437 30.4615625 1.08203125 30.4296875 C2.20996094 30.41164063 3.33789062 30.39359375 4.5 30.375 C6.73966595 30.32380764 8.97925796 30.2692438 11.21875 30.2109375 C12.20810547 30.19337402 13.19746094 30.17581055 14.21679688 30.15771484 C16.90211746 30.00554668 19.38089909 29.59617434 22 29 C23.49084832 24.52745503 23.49084832 20.47254497 22 16 C17.4161086 14.90684754 12.87488993 14.67717375 8.1875 14.4375 C7.39923828 14.39431641 6.61097656 14.35113281 5.79882812 14.30664062 C3.86605785 14.20121679 1.93304974 14.10016906 0 14 C0 9.38 0 4.76 0 0 Z " fill="#0D52B3" transform="translate(95,49)"/>
<path d="M0 0 C2.8125 1 2.8125 1 4.1875 3.0625 C4.39375 3.701875 4.6 4.34125 4.8125 5 C5.493125 4.34 6.17375 3.68 6.875 3 C10.54335974 0.50239337 12.45447392 0.3661053 16.8125 1 C19.17747439 2.86708505 20.47280715 4.32061431 21.8125 7 C22.05299626 10.64058786 21.99769282 14.28984819 22 17.9375 C22.01224609 18.95263672 22.02449219 19.96777344 22.03710938 21.01367188 C22.03904297 21.98755859 22.04097656 22.96144531 22.04296875 23.96484375 C22.04707764 24.8580835 22.05118652 25.75132324 22.05541992 26.67163086 C21.8125 29 21.8125 29 19.8125 32 C18.1625 32 16.5125 32 14.8125 32 C14.3175 20.615 14.3175 20.615 13.8125 9 C10.10501128 12.70748872 10.14318689 15.54170639 9.75 20.5 C9.0653667 28.62069995 9.0653667 28.62069995 6.8125 32 C1.9375 31.125 1.9375 31.125 0.8125 30 C0.65535346 28.36743242 0.56164586 26.72864662 0.49609375 25.08984375 C0.45419922 24.10048828 0.41230469 23.11113281 0.36914062 22.09179688 C0.32982422 21.05087891 0.29050781 20.00996094 0.25 18.9375 C0.20681641 17.89271484 0.16363281 16.84792969 0.11914062 15.77148438 C0.01268775 13.18113116 -0.0893276 10.59067814 -0.1875 8 C-1.1775 8 -2.1675 8 -3.1875 8 C-3.8475 15.59 -4.5075 23.18 -5.1875 31 C-6.8375 31.33 -8.4875 31.66 -10.1875 32 C-13.69273617 26.43368496 -12.71521896 19.30656738 -12.1875 13 C-10.97632672 8.23386946 -9.09787723 5.00620641 -5.8125 1.375 C-3.1875 0 -3.1875 0 0 0 Z " fill="#3E81E0" transform="translate(274.1875,54)"/>
<path d="M0 0 C3.90013595 3.38011782 6.36869547 6.5752101 7.16015625 11.6796875 C7.35215176 16.63818026 6.6422753 20.24162628 3.8125 24.4375 C-0.74326911 28.54880383 -3.73930985 29.9101841 -9.796875 29.8515625 C-14.00514009 29.12267998 -16.50656058 26.62873187 -19.1875 23.4375 C-21.62898638 19.4037399 -21.76901 15.05323564 -21.1875 10.4375 C-19.43961339 5.74580436 -16.94285352 2.72343433 -13.1875 -0.5625 C-8.31611268 -2.18629577 -4.65652421 -2.2826099 0 0 Z " fill="#3D80E0" transform="translate(229.1875,55.5625)"/>
<path d="M0 0 C5.27838327 2.7944382 9.08864461 6.26593382 11 12 C11.58001066 17.91610876 10.49544827 22.24660279 7 27 C3.68240723 29.99843195 0.3191854 31.22786861 -4.125 31.4375 C-9.48322859 30.83253871 -11.65227605 29.42057389 -15.3125 25.5625 C-17.78522585 20.34230098 -17.99480084 15.67184958 -17 10 C-13.33273291 2.47618751 -8.45122255 -0.8742644 0 0 Z " fill="#3E81E0" transform="translate(196,54)"/>
<path d="M0 0 C5.27838327 2.7944382 9.08864461 6.26593382 11 12 C11.58001066 17.91610876 10.49544827 22.24660279 7 27 C3.72061188 29.96390268 0.32914789 31.23129497 -4.0625 31.5 C-9.45399636 30.81536554 -12.26333588 28.91033053 -15.875 24.9375 C-17.84654791 19.78956936 -18.0215692 14.14550967 -16.30859375 8.87109375 C-12.79188585 2.05839183 -7.56770331 -1.08110047 0 0 Z " fill="#3C80E0" transform="translate(368,54)"/>
<path d="M0 0 C4.8543459 0.09835144 8.0861007 0.9351504 12.3125 3.3125 C14.46011164 6.53391746 14.49125892 7.06243 14.25 10.6875 C14.15558179 13.94492807 14.13266321 15.01756766 15.875 17.875 C17.72890681 21.01858111 17.49942205 22.92232214 16.89453125 26.4453125 C16.02811923 29.22480879 14.62838523 30.60964321 12.3125 32.3125 C8.25001043 33.66666319 4.56027396 33.85523091 0.3125 33.3125 C-5.15091463 30.38567073 -5.15091463 30.38567073 -6.6875 27.3125 C-6.93027127 23.1507068 -6.87269719 18.9805812 -6.875 14.8125 C-6.88724609 13.64589844 -6.89949219 12.47929688 -6.91210938 11.27734375 C-6.91404297 10.16488281 -6.91597656 9.05242188 -6.91796875 7.90625 C-6.92207764 6.88208984 -6.92618652 5.85792969 -6.93041992 4.80273438 C-6.47943988 0.17962238 -4.07627027 0.01872712 0 0 Z " fill="#4385E2" transform="translate(159.6875,53.6875)"/>
<path d="M0 0 C7.26916003 0.11245109 7.26916003 0.11245109 10.4375 2.625 C15.64639611 8.96014392 15.37581077 15.54036415 14.75 23.4375 C13.48113525 27.52606418 12.57479115 28.84836346 9.125 31.3125 C3.93983176 33.04088941 -0.77290458 33.52308614 -5.85546875 31.2956543 C-8.25 29.4375 -8.25 29.4375 -8.84936523 26.65014648 C-8.83591064 25.54743408 -8.82245605 24.44472168 -8.80859375 23.30859375 C-8.80150391 22.10912109 -8.79441406 20.90964844 -8.78710938 19.67382812 C-8.75423828 18.42021484 -8.72136719 17.16660156 -8.6875 15.875 C-8.68169922 14.61751953 -8.67589844 13.36003906 -8.66992188 12.06445312 C-8.50989892 0.16514644 -8.50989892 0.16514644 0 0 Z " fill="#3B7FE0" transform="translate(334.25,54.5625)"/>
<path d="M0 0 C3.75212276 2.01502889 5.63644095 3.45466142 8 7 C7.625 9.1875 7.625 9.1875 7 11 C4.6875 11.1875 4.6875 11.1875 2 11 C1 10 0 9 -1 8 C-3.5 7.41666667 -3.5 7.41666667 -6 8 C-8.18835621 10.24058428 -8.94673544 11.60022947 -9.36328125 14.7265625 C-9.34652344 15.68304688 -9.32976562 16.63953125 -9.3125 17.625 C-9.30863281 18.58664063 -9.30476563 19.54828125 -9.30078125 20.5390625 C-9.23499194 23.17574003 -9.23499194 23.17574003 -7 25 C-4.12762267 25.58442963 -4.12762267 25.58442963 -1 25 C0.68711423 23.3540349 2.3545622 21.68762851 4 20 C6.8125 19.6875 6.8125 19.6875 9 20 C9.34717213 23.73210035 9.2922789 25.54070458 7.25 28.75 C3.78228215 32.21771785 2.14202247 32.9063916 -2.8125 33.3125 C-7.12229434 33.16001193 -10.27520658 32.29218057 -14 30 C-17.5016242 25.59972888 -18.67021236 20.79077236 -18.3828125 15.234375 C-17.48290815 9.98187208 -15.05838 5.7043259 -11.25 2 C-7.26337244 -0.45330927 -4.56068137 -0.99935249 0 0 Z " fill="#4182DF" transform="translate(398,54)"/>
<path d="M0 0 C1.2065625 0.0309375 1.2065625 0.0309375 2.4375 0.0625 C3.0975 2.3725 3.7575 4.6825 4.4375 7.0625 C4.81261719 6.61777344 5.18773437 6.17304687 5.57421875 5.71484375 C7.12428063 4.00079547 8.59706683 2.46329808 10.4375 1.0625 C13.3125 1.1875 13.3125 1.1875 15.4375 2.0625 C14.92981681 6.5047279 13.27928232 8.6878835 10.4375 12.0625 C10.1075 13.0525 9.7775 14.0425 9.4375 15.0625 C10.015 15.26875 10.5925 15.475 11.1875 15.6875 C14.39393167 17.64698602 15.68948581 19.75375885 17.4375 23.0625 C17.75 26.875 17.75 26.875 17.4375 30.0625 C16.4375 31.0625 16.4375 31.0625 13.875 31.125 C13.070625 31.104375 12.26625 31.08375 11.4375 31.0625 C11.18355469 30.43601562 10.92960938 29.80953125 10.66796875 29.1640625 C10.32378906 28.34679687 9.97960937 27.52953125 9.625 26.6875 C9.28855469 25.87539062 8.95210937 25.06328125 8.60546875 24.2265625 C7.49310918 21.76102542 7.49310918 21.76102542 4.4375 20.0625 C4.38851562 20.68898438 4.33953125 21.31546875 4.2890625 21.9609375 C4.21429688 22.77820313 4.13953125 23.59546875 4.0625 24.4375 C3.99289063 25.24960938 3.92328125 26.06171875 3.8515625 26.8984375 C3.4375 29.0625 3.4375 29.0625 1.4375 31.0625 C-1.1875 30.6875 -1.1875 30.6875 -3.5625 30.0625 C-3.58715746 25.9507744 -3.60533959 21.83907722 -3.61743164 17.72729492 C-3.6224708 16.32754772 -3.62930216 14.9278058 -3.63793945 13.52807617 C-3.6500232 11.52004223 -3.65519807 9.51197043 -3.66015625 7.50390625 C-3.66539307 6.29420166 -3.67062988 5.08449707 -3.67602539 3.83813477 C-3.52255704 0.08591603 -3.52255704 0.08591603 0 0 Z " fill="#3C7FDF" transform="translate(242.5625,54.9375)"/>
<path d="M0 0 C0.44785617 4.53556162 -0.73617785 6.5947959 -3.4375 10.1875 C-7.67749641 15.90078809 -8.21992824 19.14851693 -8.62109375 26.25 C-9 29 -9 29 -11 31 C-13.625 30.625 -13.625 30.625 -16 30 C-15.99097656 29.32195312 -15.98195313 28.64390625 -15.97265625 27.9453125 C-16.23331643 19.76284934 -18.93857574 15.26541202 -24 9 C-26.1519437 5.77208445 -26.20086443 4.71599191 -26 1 C-24.35 0.67 -22.7 0.34 -21 0 C-18.69 3.3 -16.38 6.6 -14 10 C-11.28499589 7.28499589 -9.31551188 4.67150352 -7.18359375 1.5234375 C-4.8954467 -1.42170227 -3.30544088 -0.99163226 0 0 Z " fill="#3D7FDE" transform="translate(324,55)"/>
<path d="M0 0 C3.26495906 1.50690418 4.59026688 3.04627814 6.4375 6.125 C7 9.125 7 9.125 6.4375 12.125 C3.92584655 15.52311937 2.50522074 16.93281027 -1.6875 17.6875 C-4.5625 17.125 -4.5625 17.125 -6.4375 15.625 C-8.02609813 12.09478193 -8.35619486 8.87836072 -7.5625 5.125 C-4.0426444 0.19720217 -4.0426444 0.19720217 0 0 Z " fill="#F8FAFC" transform="translate(365.5625,60.875)"/>
<path d="M0 0 C3.30704297 1.29406029 4.35930407 1.92519749 5.875 5.125 C6.39916181 9.24341419 6.26970801 11.41148937 4.25 15.0625 C1.875 17.125 1.875 17.125 -1.125 17.75 C-4.125 17.125 -4.125 17.125 -6.5 15 C-8.44141332 11.56519182 -8.83797058 10.00672869 -8.125 6.125 C-6.17671958 2.41083136 -4.41440373 0.17657615 0 0 Z " fill="#FAFBFC" transform="translate(223.125,60.875)"/>
<path d="M0 0 C2.53247055 1.06630339 3.66595865 1.87459164 5.375 4 C6.24172198 8.23991022 6.07569294 11.89506113 3.75 15.5625 C0.66788388 17.42799134 -1.08322952 17.60285455 -4.625 17 C-7.60494997 14.61604002 -7.64153701 12.86977106 -8.125 9.0625 C-7.99050808 5.64256267 -7.56024573 4.90934402 -5.4375 1.9375 C-2.625 0 -2.625 0 0 0 Z " fill="#FAFBFD" transform="translate(193.625,61)"/>
<path d="M0 0 C6 0 6 0 7.8515625 1.65234375 C9.22893713 4.46799732 9.40052506 6.43567993 9.375 9.5625 C9.38273437 10.51253906 9.39046875 11.46257812 9.3984375 12.44140625 C9 15 9 15 7.8515625 16.83984375 C6 18 6 18 0 18 C0 12.06 0 6.12 0 0 Z " fill="#FCFDFD" transform="translate(333,62)"/>
<path d="M0 0 C2.33294775 -0.04241723 4.66702567 -0.04092937 7 0 C8 1 8 1 8.125 3.5 C8 6 8 6 7 7 C4 7.125 4 7.125 1 7 C0 6 0 6 -0.0625 2.9375 C-0.041875 1.968125 -0.02125 0.99875 0 0 Z " fill="#FAFBFC" transform="translate(161,73)"/>
<path d="M0 0 C2.31 0.33 4.62 0.66 7 1 C7 1.99 7 2.98 7 4 C4.69 4.33 2.38 4.66 0 5 C0 3.35 0 1.7 0 0 Z " fill="#E0E7F1" transform="translate(160,61)"/>
</svg>
