<?xml version="1.0" encoding="UTF-8"?>
<svg version="1.1" xmlns="http://www.w3.org/2000/svg" width="1024" height="1024">
<path d="M0 0 C1.73990283 -0.00711952 3.47981421 -0.01216661 5.21972656 -0.01635742 C6.18863831 -0.01939377 7.15755005 -0.02243011 8.15582275 -0.02555847 C34.50651373 0.21123528 57.76660351 10.67987476 76.77734375 28.62109375 C96.51391117 49.08751883 103.1395902 75.15843105 103.15771484 102.88012695 C103.16238944 104.48905576 103.16753406 106.09798325 103.17311096 107.70690918 C103.18434742 111.16025479 103.19280289 114.613592 103.19923019 118.06694984 C103.20996026 123.53564745 103.23021781 129.0042843 103.25234985 134.47294617 C103.31410778 150.01994035 103.36825957 165.56693005 103.40136719 181.11401367 C103.41975076 189.70938583 103.44872995 198.30465514 103.4893719 206.89995164 C103.51037225 211.44138185 103.52588932 215.98268289 103.52817917 220.5241642 C103.53033697 224.79820141 103.54632093 229.07196934 103.57256889 233.34592438 C103.57971929 234.90708872 103.58188373 236.46828584 103.57846642 238.02946281 C103.54713644 255.07485619 107.30531836 269.19153916 119 282 C119 282.66 119 283.32 119 284 C119.5878125 284.27199219 120.175625 284.54398438 120.78125 284.82421875 C122.95292999 285.97505621 124.61514169 287.2459182 126.5 288.8125 C137.56538826 297.19350703 152.28950981 300.42195865 166 299 C181.70466549 296.08589457 196.10940933 290.50350381 205.8125 277.125 C214.07358883 264.37376641 217.4517477 252.36076982 217.43237305 237.16308594 C217.4425647 235.9421373 217.45275635 234.72118866 217.46325684 233.46324158 C217.48805274 230.15607704 217.50007115 226.84935463 217.50611091 223.54213619 C217.51557113 220.07076815 217.54177985 216.59952474 217.56611633 213.12823486 C217.60957669 206.57316401 217.63824866 200.01811763 217.66143972 193.46294713 C217.68860197 185.99236357 217.73250605 178.52190667 217.77772844 171.05141401 C217.87028113 155.70100805 217.94209537 140.35057817 218 125 C221.81363812 123.95266625 225.42404815 123.85906374 229.35693359 123.87060547 C230.4606002 123.86797699 230.4606002 123.86797699 231.58656311 123.86529541 C234.02387852 123.86089046 236.46112131 123.86381558 238.8984375 123.8671875 C240.61121637 123.86651278 242.32399514 123.86554136 244.03677368 123.86428833 C247.63975937 123.86281213 251.24272031 123.86495868 254.84570312 123.86962891 C259.39764298 123.8752497 263.94952337 123.87201015 268.50146103 123.86617661 C286.68906918 123.84651449 304.84025864 123.84978698 323 125 C322.34 125.33 321.68 125.66 321 126 C321.00276538 126.9414364 321.00276538 126.9414364 321.00558662 127.90189171 C321.04997802 143.25502235 321.08295896 158.6081303 321.10362434 173.96130943 C321.11388653 181.38633928 321.12784864 188.81132599 321.15087891 196.23632812 C321.17096925 202.71664831 321.18375306 209.19693722 321.18817699 215.6772877 C321.19075823 219.10068747 321.1967162 222.52399784 321.21146011 225.94736862 C321.28281809 244.59716422 321.08819197 262.77826965 316.375 280.9375 C316.11630127 281.94619141 315.85760254 282.95488281 315.59106445 283.99414062 C307.72641018 313.35057753 291.39252736 337.81056625 270 359 C269.25363281 359.74378906 268.50726562 360.48757813 267.73828125 361.25390625 C245.18878817 382.71405184 215.58689913 396.30751267 185 401 C183.82179688 401.19078125 182.64359375 401.3815625 181.4296875 401.578125 C140.4928473 406.39094921 98.35727949 397.02743339 65.66357422 371.33740234 C50.21023539 358.91395208 37.113924 345.66276281 26.27392578 328.95092773 C24.64123681 326.43455329 23.12808909 324.12808909 21 322 C15.76527787 312.38921838 11.73603772 301.89550153 8.1875 291.5625 C7.92235596 290.81572998 7.65721191 290.06895996 7.3840332 289.29956055 C2.08274111 273.2427464 0.38380488 256.71539197 0.25610352 239.90917969 C0.22835177 238.00817505 0.19937902 236.10718791 0.16929722 234.20621872 C0.08175267 228.13761299 0.03662857 222.06909989 0 216 C-0.00668528 214.99357012 -0.01337056 213.98714024 -0.02025843 212.95021248 C-0.11719024 197.94073286 -0.12040445 182.93170141 -0.10139394 167.92198277 C-0.09499772 161.98581125 -0.09454411 156.04963879 -0.09336853 150.11346436 C-0.09030188 138.95181193 -0.08215378 127.79016969 -0.07201904 116.62852168 C-0.06070993 103.88772093 -0.05531078 91.1469196 -0.05032361 78.40611506 C-0.03996532 52.27073779 -0.02245976 26.13536948 0 0 Z " fill="#4D9BFE" transform="translate(331,553)"/>
<path d="M0 0 C0.84175781 0.65484375 1.68351562 1.3096875 2.55078125 1.984375 C11.09112842 8.67150571 19.14750375 15.56286399 26 24 C26.78375 24.95777344 27.5675 25.91554687 28.375 26.90234375 C34.44324605 34.46341337 39.54060813 42.38668461 44 51 C44.33773438 51.64952637 44.67546875 52.29905273 45.0234375 52.96826172 C55.78603681 73.97252625 62.12729332 96.95715491 62.15821838 120.64472961 C62.16315636 121.46666988 62.16809434 122.28861015 62.17318195 123.13545769 C62.18842849 125.86544976 62.19688387 128.59541852 62.20532227 131.32543945 C62.21491416 133.29476114 62.22492498 135.26408083 62.23532104 137.23339844 C62.26231454 142.5765455 62.28337508 147.91970126 62.30332303 153.26287866 C62.32534525 158.90241524 62.3526822 164.54192622 62.37937927 170.18144226 C62.42364163 179.68825112 62.46438984 189.19506961 62.50268555 198.7019043 C62.55605512 211.94855547 62.61594014 225.19517108 62.67708123 238.44178832 C62.71980018 247.75402077 62.7608708 257.06626063 62.8016727 266.37850165 C62.81140395 268.59757753 62.82117969 270.81665322 62.83100247 273.03572869 C62.96349935 303.02400019 63.02682294 333.01143206 63 363 C43.95133603 367.17737446 21.28579367 360.08739565 5.22070312 349.86816406 C1.65389486 347.43549262 -1.68756947 344.76454748 -5 342 C-5.73605469 341.41476562 -6.47210937 340.82953125 -7.23046875 340.2265625 C-28.04919396 323.07225507 -38.36072488 296.10372787 -41 270 C-41.24310419 265.22201999 -41.26474267 260.46016359 -41.24291992 255.67675781 C-41.24399687 254.31982329 -41.24594162 252.96288923 -41.24867249 251.60595703 C-41.25345274 247.97448125 -41.24595609 244.34313143 -41.23571944 240.71167088 C-41.22684281 236.89345539 -41.22869811 233.07524274 -41.2290802 229.25701904 C-41.22814899 222.86240566 -41.21953176 216.46784026 -41.20581055 210.07324219 C-41.19000992 202.68224431 -41.18481551 195.29129855 -41.1855461 187.90028501 C-41.18622081 180.00774325 -41.17929352 172.11522153 -41.1700995 164.22268581 C-41.1679693 161.95370597 -41.16725853 159.68472935 -41.16686058 157.4157486 C-41.16585757 153.85992013 -41.15976444 150.30413553 -41.14969444 146.74832153 C-41.14537526 144.82031707 -41.14594133 142.89230361 -41.14663696 140.96429443 C-41.14237198 139.82069458 -41.13810699 138.67709473 -41.13371277 137.49884033 C-41.131199 136.00572264 -41.131199 136.00572264 -41.12863445 134.48244095 C-41 132 -41 132 -40 129 C-40.66 128.67 -41.32 128.34 -42 128 C-41.95359375 127.42894531 -41.9071875 126.85789063 -41.859375 126.26953125 C-41.30999775 113.92816384 -46.03217904 103.00860248 -53 93 C-53.7321875 92.26910156 -54.464375 91.53820312 -55.21875 90.78515625 C-57 89 -57 89 -57 87 C-57.84498047 86.60941406 -57.84498047 86.60941406 -58.70703125 86.2109375 C-61.22533574 84.88099816 -63.39605062 83.31499004 -65.6875 81.625 C-79.57108742 71.81882445 -95.47766806 69.91439928 -112.12158203 72.3046875 C-125.64191558 75.10076809 -138.09016089 83.80527687 -145.75 95.1875 C-155.1612945 111.01856383 -156.28933907 126.79354377 -156.09375 144.73120117 C-156.03858822 149.94959214 -156.0206769 155.16808273 -156.00390625 160.38671875 C-155.99996857 161.51737762 -155.99603088 162.6480365 -155.99197388 163.81295776 C-155.94058028 189.54085957 -156.57133122 215.27987341 -157 241 C-190.66 241 -224.32 241 -259 241 C-259.88128559 236.59357203 -260.12965989 232.66033929 -260.09765625 228.21557617 C-260.09619598 227.44741074 -260.09473572 226.6792453 -260.0932312 225.88780212 C-260.08943582 224.22526084 -260.0833305 222.56272355 -260.07516479 220.90019798 C-260.06235833 218.2638048 -260.05587417 215.62746218 -260.05102539 212.99104309 C-260.03767903 206.44161371 -260.01351309 199.89223235 -259.98962402 193.34283447 C-259.96983912 187.80818765 -259.95421876 182.273559 -259.94406128 176.73888588 C-259.93761349 174.1510198 -259.92510393 171.56322913 -259.91235352 168.97538757 C-259.90871771 167.37446151 -259.90536639 165.77353476 -259.90234375 164.17260742 C-259.89717743 163.46116577 -259.89201111 162.74972412 -259.88668823 162.01672363 C-259.8861916 157.24799623 -260.36424655 152.71380742 -261 148 C-261.03496899 145.93251809 -261.02003922 143.86343948 -260.94921875 141.796875 C-260.91143311 140.66161377 -260.87364746 139.52635254 -260.8347168 138.35668945 C-260.78613525 137.16648193 -260.73755371 135.97627441 -260.6875 134.75 C-260.61366089 132.89024536 -260.61366089 132.89024536 -260.53833008 130.99291992 C-259.82990747 114.60601435 -258.50027505 98.81682034 -254 83 C-253.79922852 82.28666504 -253.59845703 81.57333008 -253.39160156 80.83837891 C-248.11640557 62.57839772 -239.70515524 45.9576378 -228 31 C-227.29488281 30.07316406 -226.58976562 29.14632812 -225.86328125 28.19140625 C-211.37984203 9.74576923 -193.75967246 -4.26676468 -173 -15 C-172.35546875 -15.34514648 -171.7109375 -15.69029297 -171.046875 -16.04589844 C-118.86978287 -43.8302 -46.02912159 -37.71060564 0 0 Z " fill="#4E9BFE" transform="translate(589,77)"/>
<path d="M0 0 C0.54085267 28.38053227 -9.64516019 53.48270735 -29 74 C-29.56976563 74.62132812 -30.13953125 75.24265625 -30.7265625 75.8828125 C-32 77 -32 77 -34 77 C-34 77.66 -34 78.32 -34 79 C-43.37477182 87.02760973 -54.1191222 93.27360182 -65.75 97.3125 C-66.76622437 97.67625732 -66.76622437 97.67625732 -67.80297852 98.04736328 C-81.14991585 102.3994583 -95.40398008 102.27724324 -109.28125 102.16015625 C-111.03589513 102.15328379 -112.79054466 102.14746397 -114.54519653 102.14260864 C-118.26741731 102.1309407 -121.98955372 102.11379255 -125.71173096 102.09237671 C-134.55391421 102.04339794 -143.3961863 102.03710687 -152.23848343 102.02697945 C-155.24975944 102.02342857 -158.26103355 102.0190812 -161.27230835 102.01463318 C-179.17495803 101.99000186 -197.07669805 101.99184235 -214.97875977 102.15158081 C-218.05060798 102.17801398 -221.12213341 102.19243147 -224.1940918 102.1958313 C-227.79046695 102.2000829 -231.38590918 102.2278885 -234.98199081 102.27349472 C-236.88244638 102.29204985 -238.78308797 102.28715387 -240.68362427 102.28103638 C-255.22484906 102.52740792 -266.90130587 107.84301449 -277.6875 117.375 C-289.92779105 131.26938443 -295.03094844 144.5688148 -294.14794922 163.05908203 C-293.42273574 172.57302117 -289.65631337 180.79772492 -285 189 C-284.62101562 189.66902344 -284.24203125 190.33804688 -283.8515625 191.02734375 C-276.37449614 202.72020285 -263.18764508 208.24601557 -250.23732758 211.38053322 C-245.0253616 212.37784959 -239.91519099 212.43941335 -234.62207031 212.43237305 C-233.44988953 212.4425647 -232.27770874 212.45275635 -231.07000732 212.46325684 C-227.23932994 212.49317714 -223.40890346 212.5026208 -219.578125 212.51171875 C-216.90482857 212.528581 -214.23156432 212.54659032 -211.55828857 212.56611633 C-205.26883851 212.60956333 -198.97941392 212.63824341 -192.68986011 212.66143972 C-185.52156527 212.68860926 -178.35340229 212.73251279 -171.18520212 212.77772844 C-156.45687961 212.87026186 -141.72850037 212.94208486 -127 213 C-126.84643939 226.41220052 -126.69825761 239.82444847 -126.5570364 253.23678493 C-126.49129816 259.4639608 -126.42367277 265.69110449 -126.35180664 271.91821289 C-126.28258346 277.92222606 -126.21822315 283.92627308 -126.15730476 289.93037605 C-126.13313835 292.22663342 -126.10718825 294.5228727 -126.07946587 296.81908989 C-126.04108086 300.02316327 -126.0089096 303.22724102 -125.97827148 306.43139648 C-125.95885246 307.87069267 -125.95885246 307.87069267 -125.93904114 309.33906555 C-125.9284819 310.64111435 -125.9284819 310.64111435 -125.91770935 311.96946716 C-125.90526515 313.1074206 -125.90526515 313.1074206 -125.89256954 314.268363 C-126 316 -126 316 -127 317 C-128.78427187 317.09636838 -130.57239653 317.12187453 -132.35926819 317.12025452 C-133.52179611 317.12162918 -134.68432404 317.12300385 -135.88208008 317.12442017 C-137.16888672 317.12082489 -138.45569336 317.11722961 -139.78149414 317.11352539 C-141.14123024 317.11324352 -142.5009665 317.11340125 -143.86070251 317.1139679 C-147.56301778 317.11425587 -151.26530092 317.10835912 -154.96760869 317.10139394 C-158.83268781 317.09516043 -162.69776758 317.0945566 -166.56285095 317.09336853 C-173.88684682 317.09025521 -181.21082784 317.0820418 -188.53481716 317.07201904 C-196.87083448 317.06085794 -205.20685249 317.05534746 -213.54287541 317.05032361 C-230.69525888 317.03985919 -247.84762787 317.02225973 -265 317 C-265 316.34 -265 315.68 -265 315 C-266.42699219 315.07927734 -266.42699219 315.07927734 -267.8828125 315.16015625 C-272.77887037 315.15155806 -277.20933441 313.81734669 -281.875 312.4375 C-282.79611572 312.1679248 -283.71723145 311.89834961 -284.66625977 311.62060547 C-324.59150688 299.61306415 -359.61759115 271.67522678 -379.5324707 234.87036133 C-388.20178218 218.26146639 -396.20628476 199.83762668 -396.76171875 180.8359375 C-396.84035156 180.23007812 -396.91898437 179.62421875 -397 179 C-397.66 178.67 -398.32 178.34 -399 178 C-399.98789344 126.19385475 -388.51554891 81.03504732 -351.6875 42.71875 C-348.26063086 39.25203354 -344.83533445 36.00926242 -341 33 C-340.50226074 32.60635254 -340.00452148 32.21270508 -339.49169922 31.80712891 C-309.53147699 8.33090023 -276.9595765 -0.79429831 -239.1862793 -0.67529297 C-236.58517065 -0.68541005 -233.98406967 -0.69768617 -231.38298035 -0.71192932 C-225.11753564 -0.74237854 -218.85233662 -0.74719511 -212.58682992 -0.74295644 C-205.27985304 -0.73915109 -197.97303719 -0.76285334 -190.66611097 -0.78772415 C-177.63800313 -0.83126728 -164.60996179 -0.85226947 -151.58178711 -0.859375 C-138.94794069 -0.86630119 -126.31421721 -0.88660554 -113.68041992 -0.92285156 C-112.89902654 -0.92509034 -112.11763315 -0.92732913 -111.31256118 -0.92963575 C-108.17139119 -0.93866779 -105.03022131 -0.94773474 -101.8890516 -0.95686179 C-89.09152161 -0.99372242 -76.2939683 -1.02085045 -63.49641061 -1.04601526 C-60.5824871 -1.05174547 -57.66856454 -1.05780068 -54.75464225 -1.06412268 C-46.46824061 -1.08186242 -38.18187031 -1.09418205 -29.89544868 -1.09817314 C-27.38229051 -1.10009229 -24.86913301 -1.1037146 -22.35597992 -1.10912132 C-18.94003648 -1.11610639 -15.52414916 -1.11689567 -12.10820007 -1.11593628 C-10.5996562 -1.12102607 -10.5996562 -1.12102607 -9.0606367 -1.12621868 C-8.15122224 -1.12462753 -7.24180779 -1.12303638 -6.30483532 -1.12139702 C-5.51609309 -1.12210414 -4.72735087 -1.12281126 -3.91470736 -1.12353981 C-2 -1 -2 -1 0 0 Z " fill="#0E57BC" transform="translate(434,339)"/>
<path d="M0 0 C0.33 0.66 0.66 1.32 1 2 C1.95358398 1.96447021 2.90716797 1.92894043 3.88964844 1.89233398 C30.91522016 0.93298432 57.93646896 0.90472709 84.97424316 1.1411438 C88.71862912 1.17370205 92.46290514 1.19754271 96.20739746 1.21359253 C135.02976181 1.39483382 135.02976181 1.39483382 151 6 C151.69132523 6.19856598 152.38265045 6.39713196 153.09492493 6.60171509 C162.86213139 9.44060107 171.92595243 13.47314892 181 18 C181.94359375 18.46019531 182.8871875 18.92039062 183.859375 19.39453125 C197.43412627 26.36263582 209.23162771 36.29112148 220 47 C220.4738916 47.46986328 220.9477832 47.93972656 221.43603516 48.42382812 C244.52393088 71.64900759 260.06029479 102.66392976 265 135 C265.18304687 136.13179687 265.36609375 137.26359375 265.5546875 138.4296875 C270.4544151 179.31454026 260.55833524 221.41668721 235.38134766 254.24414062 C207.94183885 289.1230638 170.54648008 313.08317291 125.98325443 318.52231503 C120.7767925 319.0878777 115.62149352 319.13629184 110.38877869 319.12025452 C109.35611722 319.12110894 108.32345575 319.12196337 107.25950152 319.12284368 C103.818735 319.1244834 100.37801784 319.1190019 96.93725586 319.11352539 C94.4630534 319.11324317 91.98885085 319.11340194 89.51464844 319.1139679 C84.19784352 319.1141952 78.88105381 319.11136914 73.56425285 319.10573006 C65.87717458 319.09758236 58.19010224 319.09499649 50.50302012 319.09374207 C38.02943517 319.09155668 25.55585678 319.08491052 13.08227539 319.07543945 C0.96964551 319.06625205 -11.14298257 319.05917772 -23.25561523 319.05493164 C-24.3766723 319.05453756 -24.3766723 319.05453756 -25.52037699 319.05413551 C-29.26994315 319.05283041 -33.01950933 319.05156672 -36.76907551 319.05032361 C-67.84605511 319.03996697 -98.92302656 319.02228798 -130 319 C-130.01205356 316.42706922 -130.02087294 313.85419541 -130.02783203 311.28125 C-130.03156326 310.55583008 -130.03529449 309.83041016 -130.03913879 309.08300781 C-130.08689836 285.54172998 -119.55488017 263.27128074 -104 246 C-103.31421875 245.23171875 -102.6284375 244.4634375 -101.921875 243.671875 C-86.11096051 226.92401743 -63.62649618 216.05213565 -40.53632545 214.81431961 C-36.55452096 214.74365138 -32.57518505 214.73251135 -28.59301758 214.74462891 C-27.07057509 214.74187293 -25.54813404 214.73818937 -24.0256958 214.73365784 C-20.76719528 214.72559591 -17.50876317 214.72336472 -14.25025368 214.72560501 C-9.08236313 214.72846043 -3.91460682 214.71400262 1.25325012 214.69662476 C15.94200637 214.64981222 30.63075245 214.62567472 45.31958008 214.61914062 C53.44772097 214.61537256 61.5757086 214.59720605 69.70378381 214.56404626 C74.82508163 214.54399874 79.94597967 214.54137916 85.0673002 214.55232644 C88.27378769 214.55496108 91.48004941 214.54079732 94.68647766 214.52224541 C96.15524783 214.51698981 97.62406135 214.51830407 99.09281349 214.52728081 C117.00407683 214.62778297 133.57633408 210.78517073 146.9375 198.1875 C158.30395877 186.13216494 162.44723438 172.59219789 162.21875 156.375 C161.90568893 147.34318823 159.60073901 136.60073901 153 130 C152.5875 129.278125 152.175 128.55625 151.75 127.8125 C144.44283174 116.06883673 132.22504983 108.93133173 118.93481445 105.46069336 C114.73247917 104.80103055 110.56480865 104.76120178 106.31640625 104.68359375 C105.33667847 104.66281265 104.35695068 104.64203156 103.34753418 104.62062073 C100.08593876 104.55404427 96.82426118 104.49534887 93.5625 104.4375 C91.88182938 104.40523315 91.88182938 104.40523315 90.16720581 104.37231445 C75.7566755 104.09913145 61.35023517 103.96399255 46.9375 103.97265625 C46.23097731 103.97304838 45.52445461 103.97344051 44.79652214 103.97384453 C37.81966347 103.97909383 30.84291204 103.99456524 23.86612892 104.02777004 C21.89354715 104.03667677 19.92095532 104.04325823 17.94836426 104.04978943 C15.52923711 104.05804249 13.11011927 104.07046496 10.69104004 104.08778381 C9.61616333 104.09104172 8.54128662 104.09429962 7.43383789 104.09765625 C6.50036026 104.10289307 5.56688263 104.10812988 4.6051178 104.11352539 C2 104 2 104 -3 103 C-3 69.67 -3 36.34 -3 2 C-2.01 2 -1.02 2 0 2 C0 1.34 0 0.68 0 0 Z " fill="#0E57BC" transform="translate(679,337)"/>
<path d="M0 0 C0.09706112 6.11485027 -0.22959149 11.93303301 -1 18 C-1.33 18 -1.66 18 -2 18 C-2.33 12.72 -2.66 7.44 -3 2 C-2.34 1.67 -1.68 1.34 -1 1 C-87.79 1 -174.58 1 -264 1 C-264 0.67 -264 0.34 -264 0 C-230.65681584 -0.15030808 -197.31361351 -0.29533714 -163.97037584 -0.4332476 C-160.03737931 -0.44951935 -156.10438296 -0.46583498 -152.17138672 -0.48217773 C-150.99686204 -0.48705712 -150.99686204 -0.48705712 -149.7986096 -0.49203508 C-137.10615615 -0.54486874 -124.41372086 -0.60126048 -111.7212887 -0.6589582 C-98.7058107 -0.71804558 -85.6903206 -0.77333008 -72.67481124 -0.82505554 C-64.63813189 -0.85711516 -56.60147692 -0.89217078 -48.56482743 -0.93101191 C-42.41102965 -0.96043614 -36.25722166 -0.98457939 -30.10339355 -1.00670624 C-27.5725111 -1.01664455 -25.04163483 -1.02832503 -22.51076889 -1.04183006 C-19.06952587 -1.0599389 -15.62831596 -1.07192081 -12.18704224 -1.08229065 C-11.17343947 -1.08909444 -10.1598367 -1.09589823 -9.11551869 -1.10290819 C-8.19888695 -1.10440054 -7.28225521 -1.10589289 -6.33784676 -1.10743046 C-5.1451452 -1.11255668 -5.1451452 -1.11255668 -3.92834866 -1.11778647 C-2 -1 -2 -1 0 0 Z " fill="#1E59B9" transform="translate(434,339)"/>
<path d="M0 0 C0.33 0 0.66 0 1 0 C1 15.18 1 30.36 1 46 C0.67 46 0.34 46 0 46 C0 44.02 0 42.04 0 40 C-0.66 39.67 -1.32 39.34 -2 39 C-2 28.77 -2 18.54 -2 8 C-1.34 8 -0.68 8 0 8 C0 5.36 0 2.72 0 0 Z " fill="#205BB8" transform="translate(37,478)"/>
<path d="M0 0 C-4.37736168 3.59568995 -7.84322889 4.0994589 -13.421875 4.31640625 C-14.44667969 4.35830078 -15.47148438 4.40019531 -16.52734375 4.44335938 C-17.59082031 4.48267578 -18.65429688 4.52199219 -19.75 4.5625 C-21.36841797 4.62727539 -21.36841797 4.62727539 -23.01953125 4.69335938 C-25.67956428 4.79928989 -28.33968812 4.90136421 -31 5 C-31 4.34 -31 3.68 -31 3 C-30.38479492 2.94465088 -29.76958984 2.88930176 -29.13574219 2.83227539 C-26.34019004 2.57892518 -23.54510238 2.32076306 -20.75 2.0625 C-19.78191406 1.97548828 -18.81382812 1.88847656 -17.81640625 1.79882812 C-16.88183594 1.71181641 -15.94726562 1.62480469 -14.984375 1.53515625 C-13.69611816 1.41732788 -13.69611816 1.41732788 -12.38183594 1.29711914 C-10.028472 1.05260028 -10.028472 1.05260028 -7.89160156 0.47045898 C-5.24961026 -0.18662894 -2.70904556 -0.06156922 0 0 Z " fill="#114EAF" transform="translate(823,650)"/>
<path d="M0 0 C-3.34165598 2.22777065 -6.79841055 3.6892376 -10.5 5.1875 C-11.51513672 5.61579102 -11.51513672 5.61579102 -12.55078125 6.05273438 C-17.64605933 8.11798022 -17.64605933 8.11798022 -21 7 C-20.34 7 -19.68 7 -19 7 C-19 6.34 -19 5.68 -19 5 C-16.9635505 4.15399724 -14.92056513 3.3237175 -12.875 2.5 C-11.73804688 2.0359375 -10.60109375 1.571875 -9.4296875 1.09375 C-6.0528355 0.01684959 -3.51385272 -0.21360807 0 0 Z " fill="#1E5BB9" transform="translate(853,641)"/>
<path d="M0 0 C-3.31257082 2.20838055 -6.63416025 3.38286788 -10.375 4.625 C-11.035 4.85445313 -11.695 5.08390625 -12.375 5.3203125 C-16.02421532 6.54156384 -19.14816234 7.28256724 -23 7 C-21.68 6.67 -20.36 6.34 -19 6 C-19 5.34 -19 4.68 -19 4 C-16.96185767 3.32263519 -14.91929445 2.65856466 -12.875 2 C-11.73804688 1.62875 -10.60109375 1.2575 -9.4296875 0.875 C-6.12104059 0.03088051 -3.39471984 -0.16509276 0 0 Z " fill="#215CB9" transform="translate(377,432)"/>
<path d="M0 0 C0.66 0 1.32 0 2 0 C4.64 5.61 7.28 11.22 10 17 C9.01 17 8.02 17 7 17 C5.82592979 14.73272667 4.66060261 12.46165376 3.5 10.1875 C3.16613281 9.54490234 2.83226562 8.90230469 2.48828125 8.24023438 C0.99760916 5.30452301 0 3.33873483 0 0 Z " fill="#1C56B2" transform="translate(48,558)"/>
<path d="M0 0 C0.33 0.66 0.66 1.32 1 2 C1.66 2 2.32 2 3 2 C6.44419134 13.52164009 6.44419134 13.52164009 6 19 C3.29259338 16.29259338 2.8989446 13.7373234 1.875 10.0625 C1.52179687 8.81597656 1.16859375 7.56945312 0.8046875 6.28515625 C0 3 0 3 0 0 Z " fill="#1F59B4" transform="translate(40,534)"/>
<path d="M0 0 C0.66 0.33 1.32 0.66 2 1 C0.92492371 2.29854721 -0.16043736 3.58858361 -1.25 4.875 C-1.85328125 5.59429687 -2.4565625 6.31359375 -3.078125 7.0546875 C-4.97087634 8.97052118 -6.53657727 9.96449045 -9 11 C-7.59928507 5.70841026 -4.14512755 3.22521956 0 0 Z " fill="#1957B4" transform="translate(87,378)"/>
<path d="M0 0 C0.33 0.99 0.66 1.98 1 3 C-1.31 5.31 -3.62 7.62 -6 10 C-6.99 9.67 -7.98 9.34 -9 9 C-7.87895467 7.68412059 -6.75303035 6.37239647 -5.625 5.0625 C-4.99851562 4.33160156 -4.37203125 3.60070312 -3.7265625 2.84765625 C-2 1 -2 1 0 0 Z " fill="#1A59B8" transform="translate(834,527)"/>
<path d="M0 0 C3.31658613 4.9748792 4.38479461 11.03568353 4 17 C3.67 16.01 3.34 15.02 3 14 C2.34 14 1.68 14 1 14 C0.83081732 12.41693353 0.66476064 10.83353281 0.5 9.25 C0.4071875 8.36828125 0.314375 7.4865625 0.21875 6.578125 C0 4 0 4 0 0 Z " fill="#2664BE" transform="translate(939,454)"/>
<path d="M0 0 C0.33 0 0.66 0 1 0 C1.84098656 4.01804691 2.05404945 7.01803543 1 11 C0.67 11 0.34 11 0 11 C-0.66 14.3 -1.32 17.6 -2 21 C-2.33 21 -2.66 21 -3 21 C-2.53752467 13.80729161 -1.74922933 6.9969173 0 0 Z " fill="#2B67C0" transform="translate(40,455)"/>
<path d="M0 0 C0.66 0.33 1.32 0.66 2 1 C-0.64 3.97 -3.28 6.94 -6 10 C-6.66 9.67 -7.32 9.34 -8 9 C-6.4169423 4.7257442 -3.49431596 2.73468206 0 0 Z " fill="#1C5BBA" transform="translate(589,570)"/>
<path d="M0 0 C-0.66 0 -1.32 0 -2 0 C-2 0.66 -2 1.32 -2 2 C-6.95 3.485 -6.95 3.485 -12 5 C-12.66 4.34 -13.32 3.68 -14 3 C-12.23358317 2.3012307 -10.46167336 1.61633417 -8.6875 0.9375 C-7.20830078 0.36322266 -7.20830078 0.36322266 -5.69921875 -0.22265625 C-3 -1 -3 -1 0 0 Z " fill="#215FBB" transform="translate(148,345)"/>
<path d="M0 0 C0.66 0.33 1.32 0.66 2 1 C2.09706112 7.11485027 1.77040851 12.93303301 1 19 C0.67 19 0.34 19 0 19 C-0.19476139 16.39619004 -0.38108614 13.79224467 -0.5625 11.1875 C-0.61857422 10.44951172 -0.67464844 9.71152344 -0.73242188 8.95117188 C-0.95769724 5.63211484 -1.06255812 3.18767436 0 0 Z " fill="#3069C3" transform="translate(432,338)"/>
<path d="M0 0 C0.66 0 1.32 0 2 0 C0.50328459 4.49014624 -1.83368341 8.47848764 -5 12 C-5.66 12 -6.32 12 -7 12 C-5.50328459 7.50985376 -3.16631659 3.52151236 0 0 Z " fill="#1D55B0" transform="translate(921,577)"/>
<path d="M0 0 C1.44277632 2.84655869 2.81175104 5.71639675 4.125 8.625 C4.47820312 9.40101563 4.83140625 10.17703125 5.1953125 10.9765625 C6 13 6 13 6 15 C5.01 14.67 4.02 14.34 3 14 C2.67 11.69 2.34 9.38 2 7 C1.34 7 0.68 7 0 7 C0 4.69 0 2.38 0 0 Z " fill="#225FBD" transform="translate(140,510)"/>
<path d="M0 0 C0.33 0 0.66 0 1 0 C1.33 6.27 1.66 12.54 2 19 C1.67 18.34 1.34 17.68 1 17 C0.34 17 -0.32 17 -1 17 C-0.67 11.39 -0.34 5.78 0 0 Z " fill="#3472CB" transform="translate(138,490)"/>
<path d="M0 0 C1.75 0.0625 1.75 0.0625 4 1 C5.59501537 3.24164322 6.74543018 5.53566643 8 8 C7.34 8.66 6.68 9.32 6 10 C3.47650757 6.87567603 1.72743854 3.61939504 0 0 Z " fill="#1E5BB9" transform="translate(829,461)"/>
<path d="M0 0 C0 0.66 0 1.32 0 2 C-5.445 3.485 -5.445 3.485 -11 5 C-10.67 4.01 -10.34 3.02 -10 2 C-6.3962102 0.47839986 -3.94779314 0 0 0 Z " fill="#1D5AB9" transform="translate(183,440)"/>
<path d="M0 0 C1.90318884 2.85478326 2.4619099 4.41941308 3.125 7.6875 C3.29257812 8.49574219 3.46015625 9.30398438 3.6328125 10.13671875 C3.75398437 10.75160156 3.87515625 11.36648438 4 12 C3.67 11.34 3.34 10.68 3 10 C2.34 10 1.68 10 1 10 C-1.125 3.375 -1.125 3.375 0 0 Z " fill="#215DB7" transform="translate(935,441)"/>
<path d="M0 0 C4.62609198 -0.3227506 7.28026121 0.15549386 11 3 C11 3.66 11 4.32 11 5 C7.27566618 3.7874262 3.62197194 2.49140021 0 1 C0 0.67 0 0.34 0 0 Z " fill="#1D5DBB" transform="translate(803,443)"/>
<path d="M0 0 C0.99 0.33 1.98 0.66 3 1 C0.36 2.98 -2.28 4.96 -5 7 C-5.66 6.67 -6.32 6.34 -7 6 C-5.1875 4 -5.1875 4 -3 2 C-2.01 2 -1.02 2 0 2 C0 1.34 0 0.68 0 0 Z " fill="#235FBB" transform="translate(876,625)"/>
<path d="M0 0 C2.0625 0.4375 2.0625 0.4375 4 1 C1.93243723 3.7972908 0.85559629 4.02692273 -2.6875 4.6875 C-3.780625 4.790625 -4.87375 4.89375 -6 5 C-5.195625 4.360625 -4.39125 3.72125 -3.5625 3.0625 C-1.7249496 1.59396498 -1.7249496 1.59396498 0 0 Z " fill="#1B5ABA" transform="translate(820,540)"/>
<path d="M0 0 C0.6875 1.6875 0.6875 1.6875 1 4 C-0.3125 6.75 -0.3125 6.75 -2 9 C-2.66 9 -3.32 9 -4 9 C-2.94124926 5.59687262 -1.99097846 2.98646769 0 0 Z " fill="#1E5AB8" transform="translate(562,601)"/>
<path d="M0 0 C3.3 0 6.6 0 10 0 C6.99382731 3.00617269 4.17618402 2.59585316 0 3 C0 2.01 0 1.02 0 0 Z " fill="#1653B2" transform="translate(792,551)"/>
<path d="M0 0 C2.97 0 5.94 0 9 0 C9.33 0.99 9.66 1.98 10 3 C6.7 2.34 3.4 1.68 0 1 C0 0.67 0 0.34 0 0 Z " fill="#124DAD" transform="translate(178,551)"/>
<path d="M0 0 C0.33 0.66 0.66 1.32 1 2 C1.66 2 2.32 2 3 2 C4.16552619 6.19589427 4.08954032 6.82091936 2 11 C1.34 7.37 0.68 3.74 0 0 Z " fill="#2663BF" transform="translate(40,534)"/>
<path d="M0 0 C0.99 0.33 1.98 0.66 3 1 C4.1875 4.0625 4.1875 4.0625 5 7 C4.34 7.66 3.68 8.32 3 9 C2.01 6.03 1.02 3.06 0 0 Z " fill="#205DBA" transform="translate(836,471)"/>
<path d="M0 0 C0.66 0 1.32 0 2 0 C3.06775224 1.96466413 4.06553465 3.96855359 5 6 C4.67 6.66 4.34 7.32 4 8 C1.44971017 6.72485508 1.06918289 5.59658703 0 3 C0 2.01 0 1.02 0 0 Z " fill="#1D59B4" transform="translate(929,430)"/>
<path d="M0 0 C3.36720387 1.39332574 4.9859524 2.9789286 7 6 C3.75728494 5.4409112 2.06942576 4.5867822 0 2 C0 1.34 0 0.68 0 0 Z " fill="#1552B0" transform="translate(901,389)"/>
<path d="M0 0 C0.33 0 0.66 0 1 0 C1 1.65 1 3.3 1 5 C0.67 5 0.34 5 0 5 C0 3.35 0 1.7 0 0 Z " fill="#205FC0" transform="translate(840,490)"/>
<path d="M0 0 C0.66 0 1.32 0 2 0 C1.67 0.66 1.34 1.32 1 2 C0.67 1.34 0.34 0.68 0 0 Z " fill="#225BB3" transform="translate(115,637)"/>
<path d="M0 0 C0.33 0.66 0.66 1.32 1 2 C0.34 1.67 -0.32 1.34 -1 1 C-0.67 0.67 -0.34 0.34 0 0 Z " fill="#205CB7" transform="translate(57,580)"/>
<path d="" fill="#215EB9" transform="translate(0,0)"/>
<path d="M0 0 C0.99 0.495 0.99 0.495 2 1 C1.01 1.495 1.01 1.495 0 2 C0 1.34 0 0.68 0 0 Z " fill="#2060BD" transform="translate(34,476)"/>
<path d="M0 0 C2 1 2 1 2 1 Z " fill="#5B99EE" transform="translate(442,949)"/>
<path d="" fill="#5999F1" transform="translate(0,0)"/>
<path d="" fill="#579BF8" transform="translate(0,0)"/>
<path d="" fill="#589CF9" transform="translate(0,0)"/>
<path d="M0 0 C2 1 2 1 2 1 Z " fill="#235DB6" transform="translate(812,655)"/>
<path d="" fill="#3A77D1" transform="translate(0,0)"/>
<path d="" fill="#2259AF" transform="translate(0,0)"/>
<path d="M0 0 C2 1 2 1 2 1 Z " fill="#205BB4" transform="translate(80,614)"/>
<path d="" fill="#215BB7" transform="translate(0,0)"/>
<path d="M0 0 C2 1 2 1 2 1 Z " fill="#5592E9" transform="translate(350,552)"/>
<path d="M0 0 C2 1 2 1 2 1 Z " fill="#1C5EBD" transform="translate(820,537)"/>
<path d="" fill="#205FBC" transform="translate(0,0)"/>
<path d="" fill="#205EC1" transform="translate(0,0)"/>
<path d="" fill="#2362BF" transform="translate(0,0)"/>
<path d="" fill="#235EB9" transform="translate(0,0)"/>
<path d="M0 0 C2 1 2 1 2 1 Z " fill="#5697F0" transform="translate(600,431)"/>
<path d="" fill="#5799F5" transform="translate(0,0)"/>
<path d="M0 0 C2 1 2 1 2 1 Z " fill="#1E59B2" transform="translate(94,368)"/>
<path d="" fill="#599AF4" transform="translate(0,0)"/>
<path d="" fill="#5898F1" transform="translate(0,0)"/>
<path d="" fill="#5795EC" transform="translate(0,0)"/>
<path d="M0 0 C2 1 2 1 2 1 Z " fill="#599DFB" transform="translate(496,149)"/>
<path d="M0 0 C2 1 2 1 2 1 Z " fill="#599BFA" transform="translate(492,149)"/>
<path d="" fill="#5C9AEF" transform="translate(0,0)"/>
<path d="" fill="#5E9BF0" transform="translate(0,0)"/>
<path d="" fill="#5E99ED" transform="translate(0,0)"/>
<path d="" fill="#5F9AEF" transform="translate(0,0)"/>
<path d="" fill="#5D98EE" transform="translate(0,0)"/>
<path d="" fill="#5C96EA" transform="translate(0,0)"/>
<path d="" fill="#5997ED" transform="translate(0,0)"/>
<path d="" fill="#5995EB" transform="translate(0,0)"/>
<path d="" fill="#5B96EA" transform="translate(0,0)"/>
<path d="" fill="#5995EA" transform="translate(0,0)"/>
<path d="" fill="#5996EB" transform="translate(0,0)"/>
<path d="" fill="#5A97EB" transform="translate(0,0)"/>
<path d="" fill="#5996EC" transform="translate(0,0)"/>
<path d="" fill="#5993E7" transform="translate(0,0)"/>
<path d="" fill="#5994EB" transform="translate(0,0)"/>
<path d="" fill="#5B96EC" transform="translate(0,0)"/>
<path d="" fill="#5A93E9" transform="translate(0,0)"/>
<path d="" fill="#5B98EF" transform="translate(0,0)"/>
<path d="" fill="#5B95E9" transform="translate(0,0)"/>
<path d="" fill="#5895EB" transform="translate(0,0)"/>
<path d="" fill="#5793E6" transform="translate(0,0)"/>
<path d="" fill="#5998ED" transform="translate(0,0)"/>
<path d="" fill="#5B9EFD" transform="translate(0,0)"/>
<path d="" fill="#579FFC" transform="translate(0,0)"/>
<path d="" fill="#5A9FFB" transform="translate(0,0)"/>
<path d="" fill="#599EFC" transform="translate(0,0)"/>
<path d="" fill="#589AF8" transform="translate(0,0)"/>
<path d="" fill="#579CFA" transform="translate(0,0)"/>
<path d="" fill="#589DF9" transform="translate(0,0)"/>
<path d="" fill="#579CF8" transform="translate(0,0)"/>
<path d="" fill="#5998EE" transform="translate(0,0)"/>
<path d="" fill="#599CF8" transform="translate(0,0)"/>
<path d="" fill="#5797EE" transform="translate(0,0)"/>
<path d="" fill="#5696ED" transform="translate(0,0)"/>
<path d="" fill="#599CFA" transform="translate(0,0)"/>
<path d="" fill="#5697EF" transform="translate(0,0)"/>
<path d="" fill="#569CF6" transform="translate(0,0)"/>
<path d="" fill="#5495ED" transform="translate(0,0)"/>
<path d="" fill="#579BF6" transform="translate(0,0)"/>
<path d="" fill="#5799F4" transform="translate(0,0)"/>
<path d="" fill="#5697F2" transform="translate(0,0)"/>
<path d="" fill="#1F5BB7" transform="translate(0,0)"/>
<path d="" fill="#225BB4" transform="translate(0,0)"/>
<path d="" fill="#1F58B1" transform="translate(0,0)"/>
<path d="" fill="#3571CB" transform="translate(0,0)"/>
<path d="" fill="#225CB7" transform="translate(0,0)"/>
<path d="" fill="#2155AE" transform="translate(0,0)"/>
<path d="" fill="#235AB3" transform="translate(0,0)"/>
<path d="" fill="#5C9BF4" transform="translate(0,0)"/>
<path d="" fill="#2B66C2" transform="translate(0,0)"/>
<path d="" fill="#235CB2" transform="translate(0,0)"/>
<path d="" fill="#205DB5" transform="translate(0,0)"/>
<path d="" fill="#2C68C1" transform="translate(0,0)"/>
<path d="" fill="#589CF5" transform="translate(0,0)"/>
<path d="" fill="#1F59B4" transform="translate(0,0)"/>
<path d="" fill="#2964BE" transform="translate(0,0)"/>
<path d="" fill="#1F59B3" transform="translate(0,0)"/>
<path d="" fill="#579AF2" transform="translate(0,0)"/>
<path d="" fill="#215BB5" transform="translate(0,0)"/>
<path d="" fill="#1D5CB5" transform="translate(0,0)"/>
<path d="" fill="#255FBC" transform="translate(0,0)"/>
<path d="" fill="#5696F1" transform="translate(0,0)"/>
<path d="" fill="#2461BE" transform="translate(0,0)"/>
<path d="" fill="#5593ED" transform="translate(0,0)"/>
<path d="" fill="#2863BD" transform="translate(0,0)"/>
<path d="" fill="#5495EC" transform="translate(0,0)"/>
<path d="" fill="#1F5FBA" transform="translate(0,0)"/>
<path d="" fill="#2160BC" transform="translate(0,0)"/>
<path d="" fill="#205FBE" transform="translate(0,0)"/>
<path d="" fill="#225FBC" transform="translate(0,0)"/>
<path d="" fill="#2363C0" transform="translate(0,0)"/>
<path d="" fill="#1F5FC2" transform="translate(0,0)"/>
<path d="" fill="#205FC4" transform="translate(0,0)"/>
<path d="" fill="#2060C0" transform="translate(0,0)"/>
<path d="" fill="#1D5CBD" transform="translate(0,0)"/>
<path d="" fill="#1D60C0" transform="translate(0,0)"/>
<path d="" fill="#2060C1" transform="translate(0,0)"/>
<path d="" fill="#225FC1" transform="translate(0,0)"/>
<path d="" fill="#2060C1" transform="translate(0,0)"/>
<path d="" fill="#205DBC" transform="translate(0,0)"/>
<path d="" fill="#1F5CBA" transform="translate(0,0)"/>
<path d="" fill="#225AB8" transform="translate(0,0)"/>
<path d="" fill="#2B65BE" transform="translate(0,0)"/>
<path d="" fill="#2B65BE" transform="translate(0,0)"/>
<path d="" fill="#1D58B2" transform="translate(0,0)"/>
<path d="" fill="#5696EF" transform="translate(0,0)"/>
<path d="" fill="#5697F3" transform="translate(0,0)"/>
<path d="" fill="#1D58B4" transform="translate(0,0)"/>
<path d="" fill="#5698F4" transform="translate(0,0)"/>
<path d="" fill="#1D5AB4" transform="translate(0,0)"/>
<path d="" fill="#1F5BB3" transform="translate(0,0)"/>
<path d="" fill="#205BB4" transform="translate(0,0)"/>
<path d="" fill="#2058B2" transform="translate(0,0)"/>
<path d="" fill="#1F5DB4" transform="translate(0,0)"/>
<path d="" fill="#2057B0" transform="translate(0,0)"/>
<path d="" fill="#1F5AAF" transform="translate(0,0)"/>
<path d="" fill="#205AB3" transform="translate(0,0)"/>
<path d="" fill="#589CF5" transform="translate(0,0)"/>
<path d="" fill="#235EB6" transform="translate(0,0)"/>
<path d="" fill="#225CB5" transform="translate(0,0)"/>
<path d="" fill="#225CB3" transform="translate(0,0)"/>
<path d="" fill="#205DB7" transform="translate(0,0)"/>
<path d="" fill="#275EB5" transform="translate(0,0)"/>
<path d="" fill="#3D77D3" transform="translate(0,0)"/>
<path d="" fill="#5497F5" transform="translate(0,0)"/>
<path d="" fill="#5395F5" transform="translate(0,0)"/>
<path d="" fill="#5296F4" transform="translate(0,0)"/>
<path d="" fill="#5996EF" transform="translate(0,0)"/>
<path d="" fill="#589EFA" transform="translate(0,0)"/>
<path d="" fill="#589EFA" transform="translate(0,0)"/>
<path d="" fill="#589EFB" transform="translate(0,0)"/>
<path d="" fill="#5A9EF9" transform="translate(0,0)"/>
<path d="" fill="#569FFB" transform="translate(0,0)"/>
<path d="" fill="#599FFC" transform="translate(0,0)"/>
<path d="" fill="#5997ED" transform="translate(0,0)"/>
<path d="" fill="#5895EC" transform="translate(0,0)"/>
<path d="" fill="#5996ED" transform="translate(0,0)"/>
<path d="" fill="#5899EC" transform="translate(0,0)"/>
<path d="" fill="#5998EF" transform="translate(0,0)"/>
<path d="" fill="#5B98ED" transform="translate(0,0)"/>
<path d="" fill="#5797ED" transform="translate(0,0)"/>
<path d="" fill="#5D9BED" transform="translate(0,0)"/>
<path d="" fill="#5A9AEF" transform="translate(0,0)"/>
<path d="" fill="#5B9CF2" transform="translate(0,0)"/>
<path d="" fill="#5B9CF2" transform="translate(0,0)"/>
</svg>
